<svg width="24" height="24" viewBox="0 0 24 24" fill="none" xmlns="http://www.w3.org/2000/svg">
<path d="M9.70406 19.546L2.95406 12.796C2.84918 12.6914 2.76597 12.5672 2.70919 12.4305C2.6524 12.2938 2.62317 12.1471 2.62317 11.9991C2.62317 11.851 2.6524 11.7044 2.70919 11.5677C2.76597 11.4309 2.84918 11.3067 2.95406 11.2022L9.70406 4.45221C9.91541 4.24086 10.2021 4.12213 10.5009 4.12213C10.7998 4.12213 11.0865 4.24086 11.2978 4.45221C11.5092 4.66355 11.6279 4.9502 11.6279 5.24908C11.6279 5.54797 11.5092 5.83461 11.2978 6.04596L6.46875 10.875L20.25 10.875C20.5484 10.875 20.8345 10.9935 21.0455 11.2045C21.2565 11.4155 21.375 11.7017 21.375 12C21.375 12.2984 21.2565 12.5845 21.0455 12.7955C20.8345 13.0065 20.5484 13.125 20.25 13.125L6.46875 13.125L11.2988 17.9541C11.5101 18.1654 11.6288 18.4521 11.6288 18.751C11.6288 19.0498 11.5101 19.3365 11.2988 19.5478C11.0874 19.7592 10.8008 19.8779 10.5019 19.8779C10.203 19.8779 9.91634 19.7592 9.705 19.5478L9.70406 19.546Z" fill="black"/>
</svg>
